<?xml version="1.0" encoding="UTF-8"?>
<svg xmlns="http://www.w3.org/2000/svg" xmlns:xlink="http://www.w3.org/1999/xlink" id="Livello_2" viewBox="0 0 382.75 285.73">
  <defs>
    <style>
      .cls-1 {
        fill: none;
      }

      .cls-2 {
        fill: #fff;
      }

      .cls-3 {
        clip-path: url(#clippath);
      }
    </style>
    <clipPath id="clippath">
      <rect class="cls-1" x="129.72" y="210.99" width="119.16" height="49.8"></rect>
    </clipPath>
  </defs>
  <g id="Livello_1-2" data-name="Livello_1">
    <g>
      <path class="cls-2" d="M317.74,89.16c.54-.04,1.07-.07,1.61-.11-.28-.64-.74-1.64-1.7-3.77l-1.37.64c.73,1.62,1.17,2.6,1.47,3.25M88.54,59.97c-1.8,2.29-2.01,2.53-3.4,4.48.64-.03,1.28-.06,1.91-.08.4-.54.89-1.19,1.77-2.3l2.39,1.85c3.27-4.16,2.13-2.76,4.56-5.57l-1.14-.99c-2.76,3.18-1.56,1.77-3.71,4.49l-2.37-1.88ZM67.1,185.2c-1.66.01-3.31,0-4.97.04l-.27.09s-.02-.05-.03-.08c-.52.01-1.05.04-1.58.05.15.44.35,1.01.67,1.97l2.87-.96c1.46,4.33.99,3.01,2.06,5.74l1.41-.54c-1.05-2.65-.59-1.39-2.04-5.67l1.88-.63ZM305.37,210.67c-.64.07-1.28.13-1.91.19-.35.55-.89,1.39-1.77,2.75l1.26.83c1.69-2.64,2.16-3.37,2.41-3.77M308.65,211.05c.15-.26.3-.51.44-.77-.48.06-.97.12-1.45.17l1.01.6ZM316.72,212.17l1.32.74c.79-1.32,1.5-2.69,2.2-4.06-.61.09-1.22.16-1.83.25-.54,1.04-1.09,2.07-1.69,3.07M312.55,213.36l3.9,2.32.79-1.38-2.62-1.52c.66-1.14,1.3-2.28,1.93-3.43-.62.08-1.24.17-1.87.25-.71,1.26-1.43,2.5-2.14,3.76M311.81,220.24l1.26.83c3.28-5.12,2.36-3.65,3.38-5.4l-1.3-.77c-1.02,1.75-.05.2-3.34,5.34M301.34,216.87l-1.25-.86c-3.32,4.66-2.78,3.93-3.36,4.68l1.21.91c.66-.85.03,0,3.4-4.73M306.38,227.98l1.21.91c.9-1.17,4.41-6.13,4.62-6.48l-2.51-1.69,3.36-5.25-2.58-1.57c.17-.28.12-.2,2.35-4.07-.62.08-1.25.14-1.87.22-1.53,2.65-1.64,2.85-1.77,3.06l-2.58-1.57-3.18,4.96-2.51-1.69c-.25.41-.55.79-.82,1.18l3.74,2.57c.85-1.2.23-.26,3.26-4.99l3.85,2.4c-3.32,5.18-2.17,3.41-3.37,5.16l2.49,1.71c-3.65,5.13-3,4.23-3.68,5.11M300.42,235.3l1.14.99c2.66-3.07,1.65-1.84,5.04-6.15l-2.39-1.85c1.81-2.32.99-1.2,3.7-5.01l-2.47-1.74c1.91-2.68,1.14-1.53,3.4-5.06l-1.27-.82c-2.2,3.43-1.43,2.3-3.36,5.01l-2.47-1.74c-1.44,2.03-1.42,2.1-3.5,4.74l-2.39-1.85c-3.27,4.16-2.13,2.76-4.56,5.57l1.14.99c2.75-3.18,1.56-1.77,3.71-4.49l2.37,1.88c1.88-2.4,2.01-2.53,3.59-4.76l3.68,2.65c-1.69,2.37-.86,1.28-3.71,4.92l2.37,1.88c-2.27,2.87-1.11,1.49-4.01,4.85M296.12,235.66l3.36,3.04,1.04-1.2-2.26-2c3.84-4.43,2.97-3.42,4.03-4.75l-2.35-1.9c3.09-3.94,3.28-4.15,3.73-4.82l-1.22-.9c-.52.77-.93,1.24-3.69,4.77l-2.35-1.9c-.75,1-2,2.41-3.81,4.5l-2.26-2.01c-1.74,2.01-.44.55-4.91,5.27l1.07,1.06c1.34-1.41,2.69-2.8,4.01-4.23l2.24,2.03c3.04-3.52,3.52-4.06,3.9-4.51l3.49,2.89c-.42.5-.6.7-4.03,4.66M298.36,237.68c-1.43,1.54-2.89,3.04-4.33,4.57l1.07,1.06c1.46-1.54,2.94-3.06,4.38-4.62l-1.12-1.01ZM291.77,244.45c-3.79,3.61-3,2.88-4.62,4.28l1,1.13c1.68-1.46.84-.67,5.82-5.42l-2.13-2.15c.55-.53.43-.4,4.33-4.48l-2.22-2.05c1.02-1.07.74-.76,4.03-4.57l-1.15-.98c-3.16,3.65-2.92,3.41-3.99,4.52l-2.22-2.05c-4.05,4.25-3.4,3.58-4.09,4.24l-2.13-2.15c-4.75,4.53-3.78,3.62-5.27,4.91l1,1.13c1.67-1.45.79-.63,4.27-3.96l2.1,2.17c1.88-1.79,1.3-1.21,4.19-4.24l3.29,3.12c-3.12,3.28-2.25,2.39-4.33,4.38l2.1,2.17ZM282.82,248.49l2.93,3.46,1.2-1.04-1.98-2.29c3.5-3.04,2.46-2.12,4.62-4.18l-2.08-2.2c3.31-3.16,2.35-2.2,4.34-4.28l-1.09-1.05c-1.95,2.04-.94,1.05-4.29,4.24l-2.08-2.2c-2.43,2.32-1.52,1.49-4.37,3.95l-1.98-2.29c-2.67,2.32-1.56,1.41-5.57,4.56l.92,1.2c3.96-3.11,2.99-2.32,4.53-3.66l1.95,2.31c4.27-3.7,3.31-2.84,4.47-3.95l3.08,3.33c-1.15,1.1-.48.49-4.62,4.08M284.77,250.79c-1.58,1.36-.64.61-4.9,3.96l.92,1.2c4.28-3.37,3.38-2.64,4.95-4l-.98-1.15ZM275.58,254.23l2.69,3.65c1.13-.8.57-.41,1.28-.95l-1.82-2.41c4.58-3.6,4.61-3.62,4.89-3.86l-1.93-2.33,4.61-3.99-1.01-1.12-4.56,3.95-1.93-2.33c-.79.64-.88.7-4.63,3.65l-1.82-2.41c-1.18.91-5.64,4.05-5.86,4.18l.84,1.26c.32-.19.05-.02,4.76-3.36l1.79,2.43c.99-.71.24-.13,4.71-3.65l2.85,3.53c-4.84,3.81-3.8,3-4.87,3.78M277.37,256.66c-2.04,1.45-4.79,3.42-5.14,3.63l.84,1.26c.29-.18.02.01,5.2-3.67l-.9-1.22ZM267.95,259.45l2.44,3.82,1.34-.86-1.66-2.53c1.92-1.22,1.65-1.06,5.13-3.53l-1.77-2.45c2.39-1.7,1.4-.96,4.86-3.68l-.94-1.18c-3.54,2.78-2.46,1.96-4.81,3.64l-1.77-2.45c-2.01,1.43-2.07,1.57-4.85,3.34l-1.66-2.53-1.21.78c-2.91,1.87-1.78,1.18-4.92,3l.76,1.31c3.03-1.75,1.89-1.05,4.98-3.03l1.63,2.55c3.27-2.1,2.43-1.53,4.95-3.32l2.61,3.71c-3.42,2.43-3.29,2.25-5.12,3.44M269.58,262c-3.53,2.26-2.09,1.37-5.38,3.27l.76,1.31c3.3-1.91,1.91-1.05,5.44-3.31l-.82-1.27ZM261.47,266.84c-.52.31-.51.3-5.59,2.9l.67,1.36c6.05-3.1,4.67-2.37,7.03-3.72l-1.49-2.63c5.39-3.1,3.42-1.95,5.36-3.17l-1.6-2.57c4.89-3.13,3.86-2.45,5.1-3.34l-.86-1.25c-1.18.84-.14.15-5.05,3.3l-1.6-2.57c-1.69,1.09-.73.51-5.07,3l-1.49-2.63c-2.31,1.33-.81.52-6.36,3.37l.67,1.36c4.84-2.48,4.71-2.4,5.17-2.68l1.46,2.65c4.91-2.82,4.62-2.65,5.16-2.98l2.36,3.87c-.5.31,0,.01-5.34,3.08l1.45,2.65ZM248.57,261.49l-.64-1.37c-5.23,2.37-3.5,1.6-5.27,2.32l.58,1.4c1.75-.71.03.05,5.33-2.34M253.03,271.09c-5.73,2.59-3.86,1.76-5.77,2.53l.57,1.4c1.86-.75.04.06,7.28-3.22l-1.31-2.73c.49-.22.04,0,5.56-2.82l-1.43-2.67c.97-.49.43-.2,5.31-3l-.77-1.3c-4.81,2.77-4.32,2.5-5.25,2.97l-1.43-2.67c-5.23,2.68-4.77,2.45-5.25,2.67l-1.3-2.73-1.31.59,1.91,4.11c2.04-.92.36-.08,5.35-2.64l2.09,4.02c-4.5,2.31-3.3,1.72-5.53,2.73l1.27,2.74ZM244.33,274.78l.54,1.41,1.48-.58-1.12-2.81c3.42-1.35,2.27-.87,5.74-2.44l-1.24-2.76c3.73-1.68,2.58-1.13,5.5-2.63l-.68-1.35c-2.81,1.44-1.71.91-5.44,2.6l-1.24-2.76c-1.88.85-1.81.88-5.42,2.3l-1.12-2.81c-4.02,1.59-2.46,1.02-6.76,2.47l.48,1.43c4.05-1.37,2.9-.95,5.48-1.97l1.09,2.82c4.43-1.75,3.6-1.4,5.51-2.26l1.82,4.15c-1.92.87-.79.4-5.7,2.34l1.09,2.82ZM244.33,274.78c-2.77,1.09-1.57.65-5.93,2.13l.48,1.43c4.52-1.53,3.19-1.05,5.99-2.15l-.54-1.41ZM235.42,277.91l-6.06,1.72.38,1.46c7.64-2.17,5.67-1.59,7.64-2.24l-.93-2.88c5.9-1.99,4.81-1.62,5.89-2.03l-1.05-2.83c4.25-1.68,4.63-1.82,5.67-2.25l-.59-1.39c-1.1.45-1.63.65-5.61,2.22l-1.06-2.83c-1.01.4-.17.1-5.57,1.92l-.93-2.88c-.46.15-.91.32-1.37.46l-5.54,1.57.38,1.46,5.61-1.59.89,2.89c.3-.09.77-.25,5.65-1.9l1.54,4.27c-4.77,1.61-5.01,1.7-5.84,1.97l.89,2.89ZM223.85,270.07l-.35-1.47c-4.59,1.06-3.44.82-5.63,1.21l.28,1.49c2.12-.38,2.03-.38,5.69-1.22M226.29,280.37c-5.01,1.15-4.01.94-6.16,1.32l.28,1.49c2.25-.4,1.06-.14,7.78-1.7l-.73-2.93c1.62-.4,2.87-.77,6.01-1.66l-.86-2.9c2.24-.64.87-.22,5.8-1.88l-.5-1.43c-4.88,1.64-3.5,1.22-5.74,1.85l-.86-2.9c-1.89.52-3.77,1.1-5.68,1.57l-.73-2.94-1.4.32,1.05,4.41c1.95-.4,3.85-.96,5.77-1.51l1.24,4.36c-3.1.89-3.42.97-5.96,1.56l.7,2.94ZM216.53,279.26l.75,4.47,1.57-.28-.53-2.98c4.54-.81,3.21-.57,6.11-1.23l-.67-2.95c5.43-1.25,3.19-.72,5.92-1.47l-.4-1.46c-2.6.72-.39.19-5.85,1.45l-.67-2.95c-3.24.75-1.75.45-5.78,1.17l-.53-2.98c-5.08.91-2.86.49-7.12,1.07l.18,1.5c1.92-.26,3.86-.44,5.77-.83l.5,2.98c5.45-.97,4.33-.75,5.86-1.11l.95,4.44c-1.58.36-.26.11-6.06,1.14M217.03,282.24c-2.06.41-4.15.62-6.23.9l.18,1.5c2.1-.28,4.22-.49,6.3-.9l-.25-1.49ZM207.67,283.52l.15,1.5c.53-.04,1.05-.12,1.58-.18l-.33-3.01s5.75-.72,6.18-.81l-.47-2.99,6-1.07-.3-1.48-5.94,1.06-.47-2.99c-.4.08-.14.04-5.84.76l-.33-3.01c-2.1.24,0,.06-7.18.61l.08,1.51,5.81-.44.3,3.01c.34-.02.07,0,5.92-.74l.65,4.49c-1.49.19-4.62.61-6.12.76l.3,3.01h0ZM207.67,283.52l-6.28.48.08,1.51,6.35-.48-.15-1.5ZM197.9,273.53l-.05-1.51c-5.09.13-3.84.12-5.76.07l-.02,1.51c1.89.05.56.06,5.83-.08M191.95,284.19l-.02,1.51c2.04.05.42.07,7.95-.12l-.13-3.02c1.77-.07,3.22-.2,6.21-.43l-.27-3.01c2.77-.21,1.1-.07,6.06-.68l-.2-1.5c-4.96.61-3.26.46-5.99.67l-.27-3.01c-1.96.13-3.92.33-5.88.4l-.13-3.02-1.44.04.15,4.53c1.99,0,3.97-.18,5.95-.33l.35,4.52c-3.09.24-3.43.27-6.15.34l.1,3.02c-5.53.14-4.2.13-6.29.08M188.9,281.09l-.15,4.53,1.59.04.07-3.02c3.9.1,2.37.1,6.23,0l-.07-3.02c5.34-.13,3.27-.06,6.09-.26l-.1-1.51c-2.86.2-.79.12-6.02.26l-.07-3.02c-3.57.09-2.33.09-5.9,0l.07-3.02c-4.64-.12-3.04-.04-7.19-.36l-.12,1.51c4.18.32,2.96.25,5.82.32l-.1,3.02c5.37.14,4.12.12,5.96.07l.05,4.54c-1.92.05-.61.06-6.16-.08M182.52,283.76l-.12,1.51c4.56.34,3.27.27,6.35.35l.05-1.51c-3.19-.08-1.91-.02-6.29-.35M173.13,282.74l-.22,1.5c6.92.86,5.17.7,7.9.91l.27-3.01c6.07.46,4.96.39,6.21.42l.13-3.02,6.1.15v-1.51l-6.03-.15.13-3.02c-1.16-.03-.28.02-5.88-.4l.27-3.01c-2.64-.2-.7-.03-7.15-.82l-.22,1.5c1.93.24,3.85.5,5.78.72l-.3,3.01,5.95.45-.25,4.53-6.15-.47-.3,3.01c-2.09-.23-4.17-.52-6.25-.78M171.77,271.81l.25-1.49c-5.67-1.01-3.7-.64-5.66-1.07l-.32,1.48c1.91.41.01.06,5.73,1.08M163.83,281.07l-.32,1.48c1.99.43,0,.07,7.82,1.46l.47-2.99c.72.13,5.6.73,6.18.81l.33-3c1.47.19,1.05.14,6.07.52l.1-1.51c-4.83-.37-4.47-.32-6.01-.52l.33-3.01c-5.83-.74-5.3-.66-5.85-.76l.47-2.99-1.42-.26-.75,4.47c2.31.41,1.02.22,5.9.85l-.55,4.5c-5.05-.64-3.71-.45-6.1-.88l-.5,2.98c-6.2-1.11-4.07-.71-6.19-1.17M161.46,277.42l-1.05,4.41,1.55.36.67-2.95c3.47.8,2.08.51,6.11,1.23l.53-2.98c4.02.72,2.96.55,6.02.94l.2-1.5c-3.2-.41-1.87-.2-5.96-.93l.53-2.98c-3.82-.68-2.54-.42-5.78-1.17l.67-2.95c-4.59-1.06-3.13-.69-6.97-1.78l-.41,1.45c3.95,1.12,2.77.82,5.63,1.47l-.7,2.94c4.91,1.13,3.54.85,5.83,1.25l-.85,4.46c-2.34-.42-1.17-.18-6.03-1.29M154.67,278.77l-.41,1.45c4.33,1.23,3.03.89,6.16,1.61l.35-1.47c-3.2-.74-2.07-.45-6.09-1.59M145.66,275.9l-.51,1.42c2.01.68,4.02,1.37,6.04,2.03l1.53.44.86-2.9c5.75,1.63,4.72,1.35,6.01,1.65l.73-2.93c4.6,1.06,4.89,1.14,5.94,1.36l.3-1.48c-1.04-.22-1.27-.28-5.88-1.34l.73-2.93c-1.35-.32-.01.04-5.68-1.56l.86-2.9c-1.85-.52-.5-.09-6.84-2.23l-.51,1.42,5.52,1.86-.9,2.89,5.74,1.63-1.15,4.39-5.93-1.68-.89,2.89c-1.99-.66-3.98-1.34-5.97-2.01M146.53,264.9l.54-1.41c-4.65-1.83-3.49-1.35-5.33-2.18l-.61,1.38c1.78.81.85.42,5.39,2.21M136.89,272.39l-.61,1.38c1.92.86.55.31,7.37,3l1.06-2.83c.98.39.02.05,5.89,2.04l.93-2.88c1.69.57,1.02.36,5.85,1.73l.4-1.46c-4.76-1.35-4.1-1.14-5.78-1.71l.93-2.88c-5.58-1.89-4.62-1.55-5.57-1.92l1.06-2.83-1.34-.53-1.63,4.23c2.6,1.02,1.37.58,5.61,2.01l-1.44,4.3c-4.42-1.5-3.21-1.06-5.8-2.08l-1.09,2.82c-5.05-1.99-3.91-1.53-5.83-2.39M128.37,268.3l-.7,1.34c4.38,2.24,3.6,1.86,5.71,2.82l1.45.66,1.24-2.76c3.62,1.64,2.31,1.09,5.74,2.44l1.12-2.81c4.25,1.68,2.99,1.21,5.71,2.13l.5-1.43c-2.67-.9-1.35-.41-5.65-2.11l1.12-2.81c-3.24-1.28-2-.75-5.42-2.3l1.24-2.76c-3.38-1.53-2.51-1.1-6.48-3.14l-.7,1.34c4.13,2.12,3.09,1.62,5.23,2.58l-1.28,2.74c5.05,2.28,3.9,1.78,5.46,2.4l-1.73,4.19c-1.57-.62-.39-.1-5.64-2.48l-1.27,2.74c-2.17-.98-1.21-.51-5.65-2.79M127.04,264.19l-2.18,3.98c.46.27.93.51,1.4.75l1.43-2.67c3.42,1.74,5.07,2.62,5.56,2.82l1.31-2.73,5.56,2.51.59-1.39-5.49-2.48,1.31-2.73c-1.2-.57-3.12-1.58-5.25-2.67l1.43-2.67c-.43-.22-.86-.43-1.27-.68l-4.99-2.88-.79,1.29,5.05,2.91-1.46,2.65c.48.29.67.38,5.29,2.74l-2,4.07c-4.97-2.55-4.98-2.54-5.47-2.84M120.13,263.7l-.79,1.29,5.52,3.18.73-1.32-5.46-3.15ZM112.24,258.49l-.87,1.24c2.88,2.05,1.33,1.01,6.62,4.41l1.6-2.57c1.75,1.12.74.52,5.36,3.18l1.49-2.63c2.33,1.34,1.29.78,5.38,2.87l.68-1.35c-4.25-2.18-2.99-1.5-5.32-2.84l1.49-2.63c-1.98-1.14-2.81-1.55-5.07-3l1.6-2.57c-4.35-2.79-3.35-2.1-5.99-3.99l-.87,1.24c2.57,1.83,1.49,1.1,4.84,3.25l-1.63,2.55c3,1.92,2.02,1.33,5.09,3.1l-2.27,3.93c-3.09-1.78-2.04-1.14-5.26-3.2l-1.63,2.55c-3.22-2.07-2.51-1.58-5.23-3.51M104.7,252.8l-.95,1.18c5.17,4.07,3.82,3.04,6.33,4.82l1.77-2.45c4.15,2.96,3.09,2.23,5.13,3.53l1.66-2.53c3.21,2.06,4.04,2.62,5.17,3.23l.77-1.3c-1.08-.59-1.71-1.02-5.11-3.2l1.66-2.53c-2.14-1.37-1.12-.69-4.86-3.34l1.77-2.45-1.17-.83c-.84-.6-.2-.11-4.55-3.53l-.95,1.18c4.55,3.58,3.69,2.92,4.61,3.57l-1.8,2.43c4.77,3.39,4.42,3.15,4.87,3.44l-2.53,3.77c-.45-.29-.01.01-5.03-3.56l-1.8,2.43c-.94-.67-.12-.04-4.98-3.86M109.11,242.72l.98-1.15c-4.36-3.77-2.86-2.46-4.32-3.81l-1.03,1.11c1.41,1.31-.03.05,4.37,3.86M97.56,246.63l-1.03,1.11c1.49,1.39-.03.05,5.97,5.25l1.93-2.33c.45.38,0,.02,4.89,3.86l1.82-2.41c.81.62.04.07,4.95,3.56l.86-1.25c-4.91-3.49-4.06-2.87-4.9-3.52l1.82-2.41c-.64-.5-3.82-2.98-4.63-3.65l1.92-2.33-1.09-.94-2.93,3.46c1.62,1.39,2.96,2.43,4.64,3.75l-2.77,3.59c-4.04-3.18-3.17-2.47-4.79-3.87l-1.95,2.31c-4.76-4.12-3.15-2.71-4.72-4.17M90.85,239.97l-1.1,1.04c3.3,3.45,2,2.16,5.62,5.62l2.08-2.2c2.58,2.46,1.6,1.56,4.62,4.18l1.98-2.29c2.82,2.44,1.86,1.66,4.7,3.89l.94-1.18c-2.76-2.17-1.69-1.28-4.64-3.84l1.98-2.29c-2.86-2.48-1.9-1.6-4.37-3.95l2.08-2.2c-3.16-3.01-2.06-1.91-5.09-5.09l-1.1,1.04c3.02,3.17,2.1,2.25,4.1,4.15l-2.1,2.17c3.64,3.47,2.69,2.59,4.37,4.05l-3.01,3.4c-1.74-1.51-.81-.65-4.52-4.19l-2.1,2.17c-2.16-2.06-1.25-1.15-4.43-4.48M84.57,232.92l-1.16.96c5.2,6.01,3.7,4.31,5.25,5.97l2.22-2.06c4.23,4.45,3.67,3.86,4.32,4.49l2.13-2.15c3.31,3.16,3.61,3.45,4.42,4.2l1.01-1.12c-.85-.78-1.17-1.09-4.37-4.15l2.13-2.15c-.51-.47-.62-.59-4.09-4.24l2.22-2.05c-1.44-1.55-.05.03-4.76-5.41l-1.16.96,3.82,4.41-2.24,2.03c.22.25.36.4,4.11,4.33l-3.22,3.19c-3.46-3.62-3.65-3.82-4.24-4.47l-2.24,2.03-4.12-4.76ZM90.92,223.89l1.19-.94c-2.7-3.43-1.84-2.29-3.47-4.6l-1.23.88c1.57,2.2.87,1.28,3.51,4.65M84.99,228.58l-3.56,2.81.98,1.25,2.35-1.9c1.04,1.32.73.95,4.03,4.75l2.26-2c1.82,2.1.72.85,4.14,4.47l1.09-1.05c-3.42-3.62-2.3-2.34-4.1-4.42l2.27-2c-1.31-1.51-2.58-2.92-3.81-4.5l2.35-1.9-.89-1.13-3.56,2.81c2.22,2.83,1.23,1.62,3.8,4.59l-3.43,2.97c-2.61-3.01-1.77-2.01-3.93-4.75M78.82,225.43l-1.23.88c1.82,2.56.88,1.32,3.84,5.08l1.19-.94c-2.83-3.61-2.09-2.63-3.8-5.02M73.55,217.59l-1.28.8c3.27,5.11,2.47,3.9,4.41,6.62l2.47-1.74c2.62,3.69,2.08,2.96,3.7,5.01l2.39-1.85c3.27,4.16,2.47,3.18,3.83,4.74l1.15-.98c-1.4-1.61-.57-.6-3.79-4.69l2.39-1.85c-1.65-2.09-.85-1.01-3.5-4.74l2.47-1.74c-1.77-2.49-.87-1.14-3.99-5.99l-1.28.8c2.31,3.6,2.59,4.07,3.19,4.88l-2.49,1.71c3.25,4.57,2.97,4.2,3.48,4.84l-3.62,2.73c-.45-.57-.17-.19-3.6-5l-2.49,1.71c-.66-.89-1.09-1.59-3.45-5.27M68.81,209.42l-1.33.71c.47.96,3.88,6.82,3.93,6.92l2.58-1.57,3.36,5.25,2.51-1.69c.42.64.13.22,3.52,4.98l1.22-.9c-3.37-4.74-3.06-4.29-3.48-4.92l2.51-1.68-3.18-4.96,2.58-1.57s-3.15-5.4-3.56-6.26l-1.33.71c.32.67.38.74,2.87,5.07l-2.6,1.54c.93,1.61.29.58,3.16,5.05l-3.79,2.49c-2.93-4.57-2.35-3.63-3.27-5.23l-2.6,1.54c-2.58-4.49-2.74-4.73-3.1-5.48M64.65,200.94l-1.38.62c1.73,3.82,1.05,2.44,3.47,7.16l2.68-1.4c1.49,2.91.76,1.55,3,5.46l2.62-1.51c2.31,4.03,1.27,2.19,3.17,5.21l1.27-.82c-1.9-3.03-.82-1.12-3.13-5.15l2.62-1.51c-2.05-3.56-1.37-2.3-2.84-5.16l2.68-1.4c-2.19-4.28-1.49-2.82-3.14-6.47l-1.38.62c2.01,4.46,1.01,2.27,2.51,5.25l-2.7,1.37c1.94,3.79,1.52,3.03,2.81,5.26l-3.95,2.23c-1.33-2.31-.91-1.54-2.9-5.44l-2.7,1.37c-1.59-3.17-.58-.97-2.72-5.68M61.03,192.21l-1.42.53c2.66,6.73,2.03,5.21,3,7.37l2.77-1.21c1.81,4.02,2.16,4.8,2.62,5.65l2.71-1.34c2.78,5.42,2.4,4.71,2.81,5.41l1.32-.73c-.55-.96-.02,0-2.78-5.35l2.71-1.34c-.8-1.62-.06,0-2.48-5.35l2.77-1.21c-.79-1.75-.25-.44-2.71-6.66l-1.42.53,2.14,5.42-2.78,1.18,2.46,5.43-4.09,1.96-2.54-5.62-2.78,1.18c-.79-1.95-1.55-3.91-2.32-5.86M69.99,185.76l1.43-.5s-.02-.06-.03-.09c-.53,0-1.06,0-1.6,0,.06.19.13.37.2.58M57.1,185.4c.19.58.5,1.51,1.46,4.34l.51,1.51,2.85-1.02c.32.95-.03.04,2.25,5.81l2.8-1.15c.63,1.61.42,1.09,2.45,5.58l1.37-.64c-2.12-4.7-1.83-4.01-2.42-5.52l2.8-1.15c-2.16-5.47-1.8-4.53-2.13-5.5l2.85-1.02-.46-1.36-4.29,1.49c.89,2.63.46,1.48,2.08,5.59l-4.21,1.68c-1.68-4.25-1.23-3.06-2.15-5.77l-2.86.99c-.74-2.2-1.1-3.25-1.31-3.89-.52.01-1.05.03-1.58.05M80.67,57.75l-1.21-.91c-.9,1.17-4.41,6.13-4.62,6.48l2.29,1.54c.75-.04,1.5-.08,2.26-.13.03-.05.06-.09.1-.15l-2.49-1.71c3.65-5.13,3-4.23,3.68-5.11M86.63,50.43l-1.14-.99c-2.66,3.07-1.65,1.84-5.04,6.15l2.39,1.85c-1.81,2.32-.99,1.2-3.7,5.01l2.47,1.74c-.11.15-.21.29-.3.42,1.1-.06,2.2-.1,3.29-.15l-3.33-2.4c1.69-2.37.86-1.28,3.72-4.92l-2.37-1.88c2.27-2.87,1.11-1.49,4.01-4.85M90.93,50.08l-3.36-3.04-1.04,1.2,2.26,2c-3.84,4.43-2.96,3.42-4.03,4.75l2.35,1.9c-3.09,3.94-3.28,4.15-3.73,4.82l1.22.9c.52-.76.87-1.17,3.69-4.77l2.35,1.9c.75-1,2-2.4,3.81-4.5l2.26,2c1.73-2.01.44-.55,4.91-5.27l-1.07-1.06c-1.33,1.41-2.69,2.8-4.01,4.23l-2.24-2.03c-3.04,3.52-3.52,4.06-3.9,4.51l-3.49-2.89c.42-.5.6-.7,4.03-4.66M88.69,48.05c1.43-1.54,2.89-3.05,4.34-4.57l-1.08-1.06c-1.46,1.54-2.94,3.06-4.38,4.62l1.12,1.01ZM95.28,41.28c3.79-3.61,3-2.88,4.62-4.28l-1-1.13c-1.68,1.46-.84.67-5.82,5.42l2.13,2.15c-.55.53-.43.4-4.33,4.48l2.22,2.05c-1.02,1.07-.74.76-4.04,4.57l1.15.98c3.16-3.65,2.93-3.4,3.99-4.52l2.22,2.05c4.05-4.25,3.4-3.58,4.09-4.24l2.13,2.15c4.75-4.53,3.78-3.62,5.27-4.91l-1-1.13c-1.67,1.45-.79.63-4.27,3.96l-2.1-2.17c-1.88,1.79-1.3,1.21-4.19,4.24l-3.29-3.12c3.12-3.28,2.25-2.4,4.33-4.38l-2.1-2.17ZM104.23,37.25l-2.93-3.46-1.2,1.04,1.98,2.29c-3.51,3.04-2.46,2.12-4.62,4.18l2.08,2.2c-3.31,3.16-2.35,2.2-4.34,4.28l1.09,1.05c1.95-2.04.94-1.05,4.29-4.24l2.08,2.2c2.43-2.32,1.53-1.49,4.37-3.95l1.98,2.29c2.68-2.32,1.56-1.41,5.57-4.56l-.92-1.2c-3.96,3.11-2.99,2.32-4.53,3.66l-1.95-2.31c-4.27,3.7-3.31,2.84-4.47,3.95l-3.08-3.33c1.15-1.1.48-.49,4.62-4.08M102.28,34.94c1.58-1.36.64-.61,4.9-3.96l-.92-1.2c-4.28,3.37-3.38,2.64-4.95,4l.98,1.15ZM109.68,29.07l-.9-1.22c-1.13.8-.57.41-1.28.95l1.82,2.41c-4.58,3.6-4.61,3.62-4.89,3.86l1.93,2.33-4.61,3.99,1.01,1.12,4.56-3.95,1.93,2.33c.79-.64.88-.7,4.63-3.65l1.82,2.41c1.18-.91,5.65-4.05,5.86-4.18l-.84-1.26c-.32.19-.05.02-4.76,3.36l-1.8-2.43c-.99.7-.24.14-4.71,3.65l-2.85-3.53c4.85-3.81,3.8-3,4.87-3.78l-1.79-2.43h0ZM109.68,29.07c2.04-1.45,4.79-3.42,5.14-3.63l-.84-1.26c-.29.18-.02-.01-5.2,3.67l.9,1.22ZM123.18,32.65l.82,1.27c2.91-1.87,1.78-1.18,4.92-2.99l-.76-1.31c-3.03,1.75-1.89,1.05-4.98,3.03M119.1,26.28l-2.44-3.82-1.34.86,1.66,2.53c-1.92,1.22-1.65,1.06-5.13,3.53l1.77,2.45c-2.39,1.7-1.41.96-4.86,3.68l.94,1.18c3.54-2.78,2.46-1.96,4.81-3.64l1.77,2.45c2.01-1.43,2.07-1.57,4.85-3.34l1.66,2.53,1.21-.78-2.44-3.82c-3.27,2.1-2.43,1.53-4.95,3.32l-2.61-3.71c3.43-2.44,3.28-2.24,5.12-3.43M117.47,23.74c3.52-2.26,2.09-1.37,5.38-3.27l-.76-1.31c-3.3,1.91-1.91,1.05-5.44,3.31l.82,1.27ZM125.58,18.89c.52-.31.51-.3,5.59-2.9l-.67-1.36c-6.05,3.1-4.67,2.37-7.03,3.72l1.49,2.63c-5.39,3.1-3.42,1.95-5.36,3.17l1.6,2.57c-4.89,3.13-3.86,2.45-5.1,3.34l.86,1.24c1.19-.84.14-.15,5.05-3.3l1.6,2.57c1.69-1.09.73-.51,5.07-3l1.49,2.63c2.31-1.33.81-.53,6.36-3.37l-.67-1.36c-4.84,2.48-4.71,2.4-5.17,2.68l-1.46-2.65c-5.17,2.97-4.68,2.68-5.16,2.98l-2.36-3.87c.5-.31,0-.01,5.34-3.08l-1.46-2.65ZM138.48,24.24l.64,1.37c5.23-2.36,3.5-1.6,5.27-2.32l-.57-1.4c-1.75.71-.04-.05-5.33,2.34M134.02,14.64c5.73-2.59,3.86-1.76,5.77-2.53l-.57-1.4c-1.86.75-.04-.06-7.28,3.22l1.31,2.73c-.49.22-.04,0-5.56,2.82l1.43,2.67c-.97.49-.43.2-5.31,3l.77,1.3c4.81-2.77,4.32-2.5,5.25-2.97l1.43,2.67c5.23-2.68,4.77-2.45,5.25-2.67l1.3,2.73,1.31-.59-1.91-4.11c-2.04.92-.35.08-5.35,2.64l-2.09-4.02c4.5-2.3,3.3-1.71,5.53-2.73l-1.27-2.74ZM143.81,13.77l-1.63-4.23-1.48.58,1.12,2.81c-3.42,1.35-2.27.87-5.74,2.43l1.24,2.76c-3.73,1.68-2.58,1.13-5.5,2.63l.68,1.35c2.81-1.44,1.71-.92,5.44-2.6l1.24,2.76c1.88-.85,1.81-.88,5.42-2.3l1.12,2.81c4.02-1.59,2.46-1.02,6.76-2.47l-.48-1.43c-4.05,1.37-2.9.95-5.48,1.97l-1.09-2.82c-4.43,1.75-3.6,1.4-5.51,2.26l-1.82-4.15c1.92-.87.79-.4,5.7-2.34M142.72,10.95c2.77-1.09,1.57-.65,5.93-2.13l-.48-1.43c-4.52,1.53-3.19,1.05-5.99,2.15l.54,1.41ZM154.77,17.93l.45,1.45,5.54-1.57-.38-1.46-5.6,1.59ZM151.64,7.82l6.06-1.72-.38-1.46c-7.64,2.17-5.67,1.59-7.64,2.24l.93,2.88c-5.9,1.99-4.81,1.62-5.89,2.03l1.06,2.83c-4.25,1.68-4.63,1.82-5.67,2.24l.59,1.39c1.1-.45,1.63-.65,5.61-2.22l1.06,2.83c1.05-.42.13-.08,5.57-1.92l.93,2.88c.46-.15.91-.32,1.37-.46l-1.34-4.33c-.3.09-.77.25-5.65,1.9l-1.54-4.27c4.77-1.61,5.01-1.7,5.84-1.97l-.89-2.89ZM160.76,5.37c5.01-1.15,4-.94,6.16-1.32l-.28-1.49c-2.25.4-1.06.14-7.78,1.7l.73,2.93c-1.62.4-2.87.77-6.01,1.66l.86,2.9c-2.24.64-.87.22-5.8,1.88l.5,1.43c4.88-1.64,3.5-1.22,5.74-1.86l.86,2.9c1.89-.53,3.77-1.1,5.68-1.57l.73,2.94,1.4-.32c4.59-1.06,3.44-.82,5.63-1.21l-.28-1.48c-2.12.38-2.03.38-5.7,1.22l-.7-2.94c-1.95.4-3.85.96-5.76,1.51l-1.24-4.36c3.1-.89,3.42-.97,5.96-1.56l-.7-2.94ZM170.52,6.47l-.75-4.47-1.57.28.53,2.98c-4.54.81-3.21.57-6.11,1.23l.66,2.95c-5.43,1.25-3.19.72-5.92,1.47l.4,1.46c2.6-.72.39-.19,5.85-1.45l.66,2.95c3.24-.75,1.76-.45,5.78-1.17l.53,2.98c5.08-.91,2.86-.49,7.12-1.07l-.18-1.5c-1.92.26-3.86.44-5.77.83l-.5-2.98c-5.45.97-4.33.75-5.86,1.11l-.95-4.43c1.58-.36.26-.11,6.06-1.14M170.02,3.49c2.06-.41,4.15-.62,6.23-.89l-.18-1.5c-2.1.28-4.22.49-6.3.9l.25,1.49ZM179.68,5.22l-.45-4.51c-.53.04-1.05.12-1.58.18l.33,3.01s-5.75.72-6.18.81l.47,2.99-6,1.07.3,1.48,5.94-1.06.47,2.99c.4-.08.16-.04,5.85-.76l.33,3.01c2.1-.24.01-.06,7.18-.61l-.08-1.51-5.81.44-.3-3.01c-.34.02-.07,0-5.92.74l-.65-4.49c1.5-.19,4.62-.61,6.12-.76M179.38,2.21l6.28-.48-.08-1.51-6.35.48.15,1.51ZM189.15,12.2l.05,1.51c5.09-.13,3.84-.12,5.76-.07l.02-1.51c-1.89-.05-.56-.06-5.83.07M195.1,1.55l.02-1.51c-2.04-.05-.42-.07-7.95.12l.13,3.02c-1.77.07-3.22.2-6.21.43l.27,3.01c-2.77.21-1.1.07-6.06.68l.2,1.5c4.96-.61,3.26-.46,5.99-.67l.27,3.01c1.96-.13,3.92-.33,5.88-.4l.13,3.02,1.44-.04-.15-4.53c-1.99,0-3.97.18-5.95.33l-.35-4.52c3.09-.24,3.43-.27,6.15-.34l-.1-3.02c5.54-.14,4.2-.13,6.29-.08M198.15,4.65l.15-4.53-1.59-.04-.07,3.02c-3.9-.1-2.37-.1-6.23,0l.07,3.02c-5.34.13-3.27.06-6.09.26l.1,1.51c2.86-.2.79-.12,6.02-.26l.07,3.02c3.57-.09,2.33-.09,5.9,0l-.07,3.02c4.64.12,3.04.04,7.19.36l.12-1.51c-4.18-.32-2.96-.25-5.82-.32l.1-3.02c-5.37-.14-4.12-.12-5.96-.08l-.05-4.54c1.92-.05.61-.06,6.16.08M204.53,1.97l.12-1.51c-4.56-.34-3.27-.27-6.35-.35l-.05,1.51c3.19.08,1.91.02,6.29.35M213.92,2.99l.22-1.5c-6.92-.86-5.17-.7-7.9-.91l-.27,3.01c-6.07-.46-4.96-.39-6.21-.42l-.13,3.02-6.1-.15v1.51l6.03.15-.13,3.02c1.17.03.28-.03,5.88.4l-.27,3.01c2.64.2.7.03,7.15.82l.22-1.5c-1.93-.24-3.85-.5-5.78-.72l.3-3.01-5.95-.45.25-4.53,6.15.47.3-3.01c2.09.23,4.17.52,6.25.78M215.28,13.93l-.25,1.49c5.66,1.01,3.7.64,5.66,1.07l.32-1.48c-1.91-.41-.01-.06-5.72-1.08M223.22,4.66l.32-1.48c-1.99-.43,0-.07-7.82-1.46l-.47,2.99c-.72-.13-5.6-.73-6.18-.81l-.33,3c-1.47-.19-1.05-.14-6.07-.52l-.1,1.51c4.83.37,4.47.32,6.01.52l-.33,3.01c5.83.74,5.29.66,5.84.76l-.47,2.99,1.42.26.75-4.47c-2.31-.41-1.02-.22-5.9-.85l.55-4.5c5.04.65,3.71.45,6.1.88l.5-2.98c6.2,1.11,4.07.71,6.19,1.17M232.39,6.96l.42-1.45c-4.33-1.23-3.03-.89-6.16-1.61l-1.55-.36-.67,2.95c-3.47-.8-2.08-.51-6.11-1.23l-.53,2.98c-4.02-.72-2.96-.55-6.02-.94l-.2,1.5c3.2.41,1.87.2,5.96.93l-.53,2.98c3.83.68,2.54.42,5.78,1.17l-.66,2.95c4.59,1.06,3.13.69,6.97,1.78l.41-1.45c-3.95-1.12-2.77-.82-5.63-1.47l.7-2.94c-4.91-1.13-3.54-.84-5.83-1.25l.85-4.46c2.34.42,1.17.18,6.03,1.29l.7-2.94c3.2.74,2.07.45,6.09,1.59M241.39,9.83l.51-1.42c-2.01-.68-4.02-1.37-6.04-2.03l-1.53-.44-.86,2.9c-5.75-1.63-4.72-1.35-6.01-1.65l-.73,2.93c-4.61-1.06-4.89-1.14-5.95-1.36l-.3,1.48c1.04.22,1.27.28,5.88,1.34l-.73,2.93c1.36.32.01-.04,5.68,1.56l-.86,2.9c1.85.52.5.09,6.84,2.23l.51-1.42-5.52-1.86.89-2.89-5.74-1.63,1.15-4.39,5.93,1.68.89-2.89c1.99.66,3.98,1.34,5.97,2.01M240.53,20.83l-.54,1.41c4.65,1.83,3.49,1.35,5.33,2.18l.61-1.38c-1.78-.81-.85-.42-5.39-2.21M250.16,13.34l.61-1.39c-1.92-.86-.55-.31-7.37-3l-1.06,2.83c-.98-.39-.02-.05-5.89-2.04l-.93,2.88c-1.69-.57-1.02-.36-5.85-1.73l-.4,1.46c4.76,1.35,4.1,1.14,5.78,1.71l-.93,2.88c5.58,1.89,4.62,1.55,5.57,1.92l-1.05,2.83,1.34.53.54-1.41,1.09-2.82c-2.6-1.02-1.37-.58-5.61-2.02l1.44-4.3c4.42,1.5,3.21,1.06,5.8,2.08l1.09-2.82c5.05,1.99,3.91,1.53,5.83,2.39M251.76,17.38l1.91-4.11-1.45-.66-1.24,2.76c-3.62-1.64-2.32-1.09-5.74-2.44l-1.12,2.81c-4.25-1.68-2.98-1.21-5.71-2.13l-.5,1.43c2.67.9,1.35.41,5.65,2.11l-1.12,2.81c3.24,1.28,2,.76,5.42,2.3l-1.24,2.76c3.38,1.53,2.51,1.11,6.48,3.14l.7-1.34c-4.13-2.11-3.09-1.61-5.22-2.58l1.27-2.74c-5.05-2.28-3.9-1.78-5.46-2.4l1.73-4.19c1.57.62.39.1,5.64,2.48M258.68,17.43l.7-1.34c-4.38-2.24-3.6-1.86-5.71-2.82l-.64,1.37c2.16.98,1.21.51,5.65,2.79M256.37,28.17l-.73,1.33,4.99,2.88.79-1.29-5.05-2.91ZM266.93,22.04l.79-1.29-5.52-3.18c-.45-.27-.93-.51-1.4-.75l-1.43,2.67c-3.42-1.74-5.07-2.62-5.56-2.82l-1.3,2.73-5.56-2.51-.59,1.39,5.49,2.48-1.31,2.73c1.2.57,3.12,1.58,5.25,2.67l-1.43,2.67c.43.22.86.43,1.27.68l2.18-3.98c-.48-.29-.67-.38-5.29-2.74l2-4.07c4.73,2.42,4.95,2.52,5.47,2.84l1.45-2.65,5.46,3.14ZM274.81,27.24l.87-1.24c-2.88-2.05-1.33-1.01-6.62-4.41l-1.6,2.57c-1.75-1.12-.74-.52-5.36-3.18l-1.49,2.64c-2.33-1.34-1.29-.78-5.38-2.87l-.68,1.35c4.25,2.18,2.99,1.5,5.32,2.84l-1.48,2.63c1.98,1.14,2.81,1.55,5.07,3l-1.6,2.57c4.35,2.79,3.35,2.1,5.99,3.99l.87-1.24c-2.57-1.83-1.49-1.1-4.84-3.25l1.63-2.55c-3-1.92-2.02-1.33-5.09-3.1l2.27-3.93c3.09,1.78,2.04,1.14,5.26,3.2l1.63-2.55c3.22,2.07,2.51,1.58,5.23,3.51M271.09,37.59l-.9,1.22c.84.6.2.11,4.55,3.53l.95-1.18c-4.55-3.58-3.69-2.92-4.61-3.57M282.35,32.93l.95-1.17c-5.17-4.07-3.82-3.04-6.33-4.82l-1.77,2.45c-4.15-2.95-3.09-2.23-5.13-3.53l-1.66,2.53c-3.21-2.06-4.04-2.62-5.17-3.23l-.77,1.3c1.08.59,1.71,1.02,5.11,3.2l-1.66,2.53c2.14,1.37,1.12.69,4.85,3.34l-1.77,2.45,1.17.83,2.69-3.65c-4.77-3.39-4.41-3.15-4.87-3.44l2.53-3.77c.45.29.01-.02,5.03,3.56l1.8-2.43c.94.67.12.04,4.98,3.86M277.94,43.02l-.98,1.15c4.35,3.77,2.86,2.46,4.32,3.81l1.03-1.11c-1.41-1.31.03-.05-4.37-3.86M289.49,39.11l1.03-1.11c-1.49-1.39.04-.05-5.97-5.25l-1.93,2.33c-.44-.37,0-.02-4.89-3.86l-1.82,2.41c-.81-.62-.04-.07-4.95-3.56l-.86,1.24c4.91,3.49,4.06,2.87,4.9,3.52l-1.82,2.41c.64.5,3.82,2.98,4.63,3.65l-1.92,2.33,1.09.94,2.93-3.46c-1.6-1.36-2.99-2.45-4.64-3.75l2.77-3.59c4.06,3.19,3.17,2.47,4.79,3.87l1.95-2.31c4.76,4.12,3.15,2.71,4.72,4.17M296.2,45.76l1.1-1.04c-3.3-3.45-2-2.17-5.62-5.62l-2.08,2.2c-2.58-2.46-1.6-1.56-4.62-4.18l-1.98,2.29c-2.82-2.44-1.86-1.66-4.7-3.89l-.94,1.18c2.76,2.17,1.68,1.28,4.64,3.84l-1.98,2.29c2.86,2.48,1.9,1.6,4.37,3.95l-2.08,2.2c3.16,3.01,2.06,1.91,5.09,5.09l1.1-1.04c-3.02-3.17-2.1-2.25-4.1-4.15l2.1-2.17c-3.64-3.47-2.69-2.59-4.37-4.05l3.01-3.4c1.74,1.51.8.65,4.52,4.19l2.1-2.17c2.16,2.06,1.25,1.15,4.43,4.48M302.48,52.81l1.17-.96c-5.2-6.01-3.7-4.31-5.25-5.97l-2.22,2.06c-4.23-4.45-3.67-3.86-4.32-4.49l-2.13,2.15c-3.31-3.16-3.61-3.45-4.42-4.2l-1.01,1.12c.85.78,1.17,1.09,4.37,4.15l-2.13,2.15c.51.47.62.59,4.09,4.24l-2.22,2.05c1.44,1.55.05-.03,4.76,5.41l1.17-.96-3.82-4.41,2.24-2.03c-.22-.25-.36-.4-4.11-4.33l3.23-3.19c3.46,3.62,3.65,3.82,4.24,4.47l2.24-2.03,4.12,4.76ZM296.14,61.84l-1.19.94c2.7,3.43,1.84,2.29,3.47,4.6l1.23-.88c-1.57-2.2-.87-1.28-3.51-4.65M302.07,57.15l3.56-2.81-.98-1.25-2.35,1.9c-1.04-1.32-.73-.95-4.03-4.75l-2.26,2c-1.82-2.1-.72-.85-4.14-4.47l-1.09,1.05c3.42,3.62,2.3,2.34,4.1,4.42l-2.26,2c1.31,1.51,2.58,2.92,3.81,4.5l-2.35,1.9.89,1.13,3.56-2.81c-2.22-2.83-1.23-1.62-3.8-4.59l3.43-2.97c2.61,3.02,1.78,2.01,3.93,4.75M308.23,60.3l1.23-.88c-1.83-2.56-.89-1.32-3.84-5.08l-1.19.94c2.83,3.61,2.09,2.63,3.8,5.02M313.51,68.14l1.28-.8c-3.27-5.11-2.47-3.9-4.4-6.62l-2.47,1.74c-2.62-3.69-2.08-2.96-3.7-5.02l-2.39,1.85c-3.27-4.16-2.47-3.17-3.83-4.74l-1.15.98c1.4,1.61.58.6,3.79,4.69l-2.39,1.85c1.64,2.09.84,1.01,3.5,4.74l-2.47,1.74c1.77,2.49.87,1.14,3.99,5.99l1.28-.8c-2.3-3.6-2.59-4.07-3.19-4.88l2.49-1.71c-3.25-4.57-2.97-4.2-3.48-4.84l3.62-2.73c.45.57.17.19,3.6,5l2.49-1.71c.66.89,1.09,1.6,3.45,5.27M318.25,76.31l1.33-.71c-.47-.97-3.88-6.82-3.93-6.92l-2.58,1.57-3.36-5.25-2.51,1.69c-.42-.64-.13-.22-3.52-4.98l-1.22.9c3.37,4.74,3.06,4.29,3.48,4.93l-2.51,1.68,3.18,4.96-2.58,1.57s3.15,5.4,3.56,6.26l1.33-.71c-.32-.67-.38-.74-2.87-5.07l2.6-1.54c-.93-1.61-.3-.58-3.16-5.05l3.79-2.49c2.93,4.57,2.35,3.63,3.27,5.23l2.6-1.54c2.58,4.49,2.73,4.73,3.1,5.48M322.4,84.8l1.38-.62c-1.73-3.82-1.05-2.44-3.47-7.16l-2.68,1.4c-1.49-2.91-.76-1.55-3-5.46l-2.62,1.51c-2.31-4.03-1.27-2.19-3.17-5.21l-1.27.82c1.9,3.03.82,1.12,3.13,5.15l-2.62,1.51c2.05,3.56,1.37,2.3,2.84,5.17l-2.68,1.4c2.15,4.19,1.52,2.89,3.05,6.27.21-.01.42-.02.63-.03l.84-.38c-2.01-4.46-1.01-2.27-2.51-5.26l2.7-1.37c-1.94-3.79-1.52-3.03-2.81-5.26l3.95-2.23c1.32,2.3.9,1.53,2.9,5.44l2.7-1.37c1.59,3.17.59.97,2.72,5.68M324.08,88.63c.53-.05,1.05-.09,1.58-.14-.63-1.6-.58-1.45-1.22-2.86l-2.77,1.21c-1.82-4.01-2.16-4.8-2.62-5.65l-2.71,1.33c-2.78-5.42-2.4-4.71-2.81-5.41l-1.33.73c.54.95.02,0,2.78,5.35l-2.71,1.34c.77,1.57.12.13,2.26,4.86.53-.03,1.07-.08,1.61-.11l-1.85-4.08,4.09-1.96,2.54,5.62,2.78-1.18c.13.32.25.64.38.96"></path>
      <path class="cls-2" d="M381.62,79.97c-69.46,20.18-133.37,14.22-194.96-2.24-60.29-16.11-117.43-12.63-186.23-1.13l-.43.76c67.56-10.57,125.57-5.03,184.09,10.6,63.78,17.05,127.2,14.83,198.66-7.07l-1.14-.91Z"></path>
      <path class="cls-2" d="M381.62,189.82c-69.46,20.18-133.37,14.22-194.96-2.24-60.29-16.12-117.43-12.63-186.23-1.13l-.43.76c67.56-10.57,125.57-5.03,184.09,10.6,63.78,17.05,127.2,14.83,198.66-7.07l-1.14-.91Z"></path>
      <path class="cls-2" d="M164.83,121.07v10.25h8.89l15.59-30.01h-24.48v10.25h-17.58v-10.25h-11.7v30.01h11.7v-10.25h17.58ZM117.73,131.36v-20.5h13.91v-9.51h-39.53v9.51h13.91v20.5h11.7ZM53.77,131.36h13.18l2.37-5.14h15.03l2.37,5.14h13.18l-16.1-30.01h-13.91l-16.1,30.01ZM76.84,110.04l4.11,8.86h-8.24l4.13-8.86ZM18.65,101.35v30.01h11.7v-7.32h17.22c2.08,0,3.99-.51,5.71-1.53,1.72-1.02,3.09-2.39,4.11-4.11,1.02-1.72,1.53-3.62,1.53-5.71s-.51-4-1.53-5.72c-1.02-1.71-2.39-3.08-4.11-4.1-1.72-1.02-3.62-1.53-5.71-1.53h-28.92ZM30.35,115.24v-5.11h14.29c.7,0,1.3.25,1.8.75.5.5.75,1.11.75,1.82s-.25,1.3-.75,1.8c-.5.5-1.1.75-1.8.75h-14.29Z"></path>
      <path class="cls-2" d="M262.13,184.38h11.83v-30.01h-14.79l-11.85,15.01-11.83-15.01h-7.1c-.65.78-1.4,1.57-2.24,2.33-2.35,2.12-6.15,4.18-7.98,4.59l-1.98,23.14,16.32-.04v-16.01l11.85,16.01h5.92l11.85-16.01v16.01ZM280.85,184.43h35.52v-7.71h-23.69v-3.84h23.69v-6.95h-23.69v-3.84h23.69v-7.68h-35.52v30.01ZM352.25,169.42c0,1.01-.19,1.93-.56,2.76-.38.83-.92,1.49-1.64,1.99-.72.5-1.58.75-2.61.75h-12.96v-10.99h12.96c1.02,0,1.89.25,2.61.74.71.49,1.26,1.15,1.64,1.99.38.83.56,1.76.56,2.77M364.11,169.42c0-2.77-.62-5.29-1.86-7.56-1.24-2.27-2.95-4.08-5.13-5.43-2.17-1.35-4.66-2.02-7.46-2.02h-27.01v30.01h27.01c2.8,0,5.29-.68,7.46-2.03,2.18-1.36,3.88-3.17,5.13-5.44s1.86-4.78,1.86-7.54"></path>
      <path class="cls-2" d="M213.04,155.97c-.02-.05.06-1.87-.62-2.57-.36-.37-.31-.45.18-.7,1.21-.62,2.4-1.26,3.59-1.92.87-.48,1.72-.99,2.57-1.51.64-.39,1.26-.8,1.91-1.19,1.23-.74,2.41-1.56,3.8-2.04.39-.13.85-.1,1.28-.12.27-.01,2.39.35,2.67.46.4.15.8.3,1.18.49.52.26.69.76.39,1.23-.45.7-.91,1.39-1.43,2.03-.5.62-1.05,1.22-1.64,1.77-1.24,1.17-2.5,2.32-3.8,3.43-.92.79-1.87,1.54-2.88,2.22-.82.56-1.74,1-2.63,1.47-.96.51-1.94,1.01-2.92,1.49-1.04.52-2.1,1.02-3.15,1.53-.86.42-1.71.84-2.58,1.25-.59.27-1.18.54-1.79.77-1.19.44-2.38.91-3.61,1.23-.73.19-1.54.13-2.32.12-.9,0-1.73-.31-2.58-.54-.57-.16-1.14-.3-1.71-.46-.95-.27-1.89-.56-2.84-.84-1.39-.4-2.78-.81-4.18-1.2-1.03-.29-2.07-.57-3.12-.81-1.12-.26-2.25-.5-3.39-.66-1.05-.15-7.21,1.51-7.7,1.69-.42.15-2.27.5-2.39.51-1.02.07-2-.1-2.98-.32-2.15-.48-3.85-1.62-5.38-3.02-.93-.85-1.64-1.85-2.28-2.9-.13-.22-.03-.31.16-.39.61-.25,1.22-.5,1.84-.75,1.02-.41,2.04-.82,3.06-1.22,1.05-.42,2.11-.82,3.16-1.23,1.57-.62,3.05-1.37,4.34-2.46,1.09-.92,2.27-1.76,3.45-2.58,1.21-.83,2.56-1.41,4.05-1.66,1.6-.26,3.21-.28,4.82-.08.89.11,1.77.25,2.64.45.68.16,1.32.43,1.99.64,1.5.48,3.01.95,4.51,1.42,1.11.35,2.21.69,3.32,1.03,1.69.52,3.37,1.06,5.08,1.55,1.41.4,2.86.71,4.27,1.1,1,.27,1.76.85,2.11,1.79.28.74-.06,1.2-.92,1.17-1.6-.06-3.2-.17-4.79-.26-2.3-.13-4.6-.29-6.9-.38-1.83-.07-3.63.15-5.37.68-.41.12-.79.37-1.13.62-.36.26-.27.65.16.75.4.09.83.14,1.25.13.66-.03,1.32-.09,1.97-.2,1.73-.3,3.47-.2,5.21-.14,2.39.09,4.78.2,7.17.28.96.03,4.26-.53,4.51-.41.08.04.46-.59.4-.75"></path>
      <path class="cls-2" d="M191.08,178.05l19.17,5.35,2.53-18.97c-.65.32-2.08.93-2.74,1.24-.62.29-1.25.58-1.9.81-1.26.46-2.52.96-3.82,1.3-.77.2-1.63.13-2.45.13-.95,0-1.83-.32-2.73-.58-.6-.17-1.21-.32-1.81-.49-1-.29-2-.59-3-.88-2.43,9.65-3.25,12.1-3.25,12.1M220.72,102.01l-24.65-.71-28.32,51.24,4.89-1.77,2.69-1.83,2.62-1.71,3.47-1.28,4.59-.91,13.62-20.22h.36l-.9,6.21c.38-.63.76-1.26,1.15-1.9,1.72-2.87,5.31-7.84,4.61-11.52,4.13,4.67,9.34,11.16,11.55,17.04.06.15.12.23.18.28l4.13-32.91Z"></path>
      <path class="cls-2" d="M205.68,146.47c4.93-.2,7.56-5.04,7.43-9.48,1.52,5.53-1.44,10.31-7.43,9.48M214.26,135.45c-1.77-4.7-5.22-8.98-8.52-12.71.56,2.95-2.32,6.93-3.69,9.22-2.07,3.46-4.15,6.44-3.49,10.67.58,3.73,3.7,6.24,7.46,6.31,7.46.14,10.62-7.16,8.24-13.48"></path>
      <g class="cls-3">
        <path class="cls-2" d="M224.96,212.07c2.33.26,4.63.57,6.88.93,8.57,1.36,8.56,2.79-.49,1.59-3.41-.45-7.07-.82-10.91-1.12.05-.8,1.32-1.75,4.52-1.4M145.49,227.48c-2.07-.36-3.97-.75-5.67-1.17-3.72-.91-6.47-1.93-7.88-3.01-6.85-5.25,17.87-6.27,7.15-3.96-1.5.32-2.48.8-3.15,1.25-1.07.71-1.14,1.51-.03,2.36,1.16.89,3.49,1.75,6.67,2.52,1.47.36,3.13.7,4.94,1.02,6.64,1.17,8.61,1.73,8.21,1.91-.61.28-6.9-.33-10.25-.92M204.15,228.46v.09c2.81-.07,5.61-.04,8.37.11,1.34.07,1.63.53.65,1.01-1.25.62-5,.88-9.02.95v.1c-3.96.17-8.11.26-12.39.26-3.64,0-7.18-.07-10.58-.19-2.95-.11-3.42-.21-6.04-.65-.94-.15-1.12-.62-.41-1.03,1.72-.99,10.93-.3,12.68-.29,2.38.02,6.6.52,2.91-.98-1.27-.51-3.31-.64-5.67-.76-3.88-.19-7.07-.69-10.95-.86-7.37-1.02-2.48-1.32,1.27-1.15,2.26.1,4.53.13,6.79.09,6.25-.12,12.73.16,19.04.16,5.64-.33,14.74.06,14.69.17-.08.17-.4.35-.88.5-4.89.56-10.71.95-17.08,1.1-5.57.13-1.79,1.69.77,1.61,2-.06,3.95-.15,5.85-.25M160.16,259.14c-.85-.14-1.01-.56-.36-.94,1.35-.79,6.92-.33,10.51.12,1.88.23,5.51,1.05.97,1.36-3.73.26-7.49.07-11.11-.54M226.22,246.39c-2.54.17-5.09.3-7.63.39h0c-1.14.04-2.28.14-3.42.11-11.28-.35,5.69,2.72,11.3.72,1.46-.52.94-1.05-.25-1.23M199.19,241.5c1.07-1.35,12.78-.54,14.68-.52,4.52.05,5.78.28,5.66,2.42.6,0,1.12.02,1.49.08,3.96.57-1.71,1.04-5.29,1.24-3.11.18-13.23.77-10.76-.13.55-.2,2.27,0,4.53-.22.88-.21,1.66-.83,1.76-1.38.1-.59-12.27-.98-12.07-1.49M162.08,250.54c-3.75-1.19,16.12-1.09,15.48-.05-.4.64-9.86-.51-11.27.37-1.25.78,8.66-.1,3.87,1.3-.49.14-1.59.18-1.87.2-.95.06-3.47.7-1.45.89,1.39.13,5.25.46,7.45.73,3.49.43.24,1.08-1.18,1.17-2.49.17-8.61-.16-10.52-.54-1.91-.38-.19-.71.38-.94.34-.14,3.24-.99,1.72-1.2-1.25-.17-5.5-.37-6.92-.65-3.46-.68,4.31-1.2,4.31-1.28M202.43,247.54c-1.55-.27,1.34-1.21,4.27-1.21,1.03,0,5.28-.11,3,1.02-2.68,1.33-4.85.61-7.27.18M222.87,241.31c-1.61-.02-1.66.1-.36-.81,1.3-.91,13.32-1.65,13.24-1.38-.08.27-1.45.96-2.07,1.09-.89.19-2.89,1.06-.75.92,2.15-.14,9.82-.72,9.74-.48-.07.25.26.59-2.07,1.09-2.33.5-8.64,1.13-10.81,1.1-2.18-.02-.74-.54-.36-.81.23-.16,2.44-1.27.77-1.21-1.37.05-5.72.51-7.34.49M150.88,240.12c3.44.24,9.33.57,15.49.71.68.03,1.3.07,1.83.1,1.15.07,3.53-.01,1.03,1.05-.71.3-1.67.56-2.69.68-2.15.26-3.98.46-6.05.56-.97.05-1.72.17-2.12.4-.64.38-.47.8.36.94,2.49.42,5.04.64,7.6.65.59,0,7.56-.19,7.36.69-.14.61-1.31,1.2-2.6,1.31-1.71.15-3.42.2-5.12.16-1.99-.05-5.4-.42-7.23.43-.85.39-.64.83.48.98.32.04.58.07.81.1h.06c5.03,0,9.78.54,14.94.43,1.94-.04,4.03-1,.76-1.33-.86-.09-1.02-.55-.37-1.04,1.03-.77,4.94-2.29.17-2.58-1.2-.07-2.38-.19-3.54-.33-1.03-.11-1.23-.43-.44-.73.56-.21,1.71-.3,3.17-.32,3.37-.05,4.12-1.62,1.24-2.04-.97-.14,1.22-.13,1.3-.13,1.74-.06,3.38-.14,4.86-.27,2.74-.24,4.65-.41.57-.39-1.43,0-2.86,0-4.29-.01-5.39-.05-1.28-.61-.98-4.25.14-1.73-.33-1.84-3.34-2.22-.36-.04-.73-.09-1.09-.15-1-.14-1.19-.56-.43-.94.34-.17.89-.28,1.6-.34,1.23.08,2.69.15,4.43.21,3.65.13,7.42.2,11.25.2.44,0,.88,0,1.33,0-.72.52-.33,1.01.96,1.11,2.27.18,4.55.27,6.83.27.11,0,15.15.04,10.64,1.47-1.18.04-2.07.07-2.28.08-4.85.16-9.7.18-14.55.08-7.01-.15-15.88.37-7.59,1.53,5.69.8,11.3.68,17.04.56,6.47.38,12.64.53,19.22-.09.64-.06,1.26-.17,1.77-.3,5.8-.47,11.51-1.23,16.62-2.41,6.64-1.54,5.91-2.94-1.23-1.56-6.43,1.24-13.03,2.15-19.57,2.15-1.75,0-5.03,0-1.01-.68,2.35-.4,4.14-.07,6.68-.77,5.27-1.45-7.94-1.56-9.11-1.61-1.05-.05-1.26-.45-.46-.9,4.97-.46,9.93-1.07,14.86-1.9,11.03-1.95,17.85-4.66,17.85-7.67,0-1.3-1.31-2.54-3.71-3.67-4.62-2.17-23.05-4.3-9.5-.31,1.56.46,2.9.95,3.97,1.45,2.04.96,3.15,1.98,3.15,3.04,0,3.4-11.64,5.42-13.93,5.84-4.25.74-16.2-.17-7.31-1.57,8.78-1.38,14.21-3.32,14.21-5.51,0-1.24-1.84-2.38-5.1-3.36-1.07-.32-2.43-.6-3.92-.83-3.02-.46-5.07-.06-5.31,1.15,1.6.31,3,.65,4.17,1,2.6.79,4.07,1.66,4.07,2.56,0,1.32-3.48,2.55-9.14,3.49l-57.37-3.39c1.45.44,3.13.72,3.77.79,6.2.71,3.9,1.53-.09.96-1.21-.17-6.14-.96-6.14-2.37,0-.49.7-.74,1.45-.88-.09-.58-1.52-.97-3.13-.51-1.21.35-2.17.9-2.17,1.72,0,1.16,3.8,2.16,6.21,2.62v1.46c-6.43-.92-10.73-2.34-10.73-4.42,0-1.13,4.52-2.87,7.88-3.23.77-.08,1.41-.17,1.93-.27-.13-.66-3.4-.72-5.17-.48-4.2.57-9.1,1.88-9.1,4.49,0,2.01,4.95,3.79,12.95,5.05,3.92.62,1,.11.03.89-.47.38-.35.8.27.94.3.07.61.13.92.19,1.18.23,6.27.28,6.4,1.1.12.82-.71.77-1.41.87-1.05.14-3.85-.15-4.53.51-.38.38-.29.8.22.94,1.65.47,2.43.78-1.55.38-4.84-.49-9.69-1.08-14.54-1.86-8.04-1.29-18.52-1.83-2.73,2.24,5.11.82,10.23,1.48,15.33,1.96,2.29.22,4.14.17,6.39.15.99.08,2.04.22,2.82.35,1.31.22,1.84.67.15.81-.51.04-1.02.07-1.53.07-1.89-.2-7.2-.8-8.68.07-.64.38-.48.8.36.94,1.7.29,3.12.47,4.56.57,3.33.22,6.01.12,9.44.66,2.76.44,1.31,1.05-.34,1.18-.46.04-.92.06-1.39.08-4.27-.16-8.54-.42-12.81-.77-1.54-.13-2.89-.3-4.43-.22-1.19.06-2.13.16-2.71.3-1.42.35-1.06.73.8.86M216.88,250.45c-1.87.07-3.39.22-4.06.46-.77.28-.58.55.44.6.93.04,1.86.08,2.81.1,3.85.08-4.98,2.73,3.47,2.9.78.02,8.47-1.1,7.79.23-1.21,1.15-8.05,1.23-7.79,1.34,2.56,1.05-.66,2.26-4.31,2.27-4.32,0-9.73-.2-11.83-.71-.7-.14-.83-.56-.3-.94,3.43-2.43,9.07,2.41,13.61.01,2.39-1.26-3.88-.38-6.59-1.43-2.03-.79,9.16-.25.35-1.34-1.23-.15-2.57-.4-4.02-.48-2.32-.12-4.63-.41-6.97-.46-7.77-.16-3.45-1.42.6-1.48,1.86-.02,2.88-.22,3.41-.67,1.75-1.5-1.08-1.36,3.67-1.55,3.03.08,6.07.04,9.1-.11,4.5-.23,4.99,1.1.63,1.27"></path>
      </g>
    </g>
  </g>
</svg>
